<svg xmlns="http://www.w3.org/2000/svg" viewBox="0 0 1024 1024"><defs><style>.cls-1,.cls-6{fill:#cfc08e;}.cls-1,.cls-2,.cls-3,.cls-5,.cls-7,.cls-8,.cls-9{stroke:#000;stroke-miterlimit:10;}.cls-1,.cls-2,.cls-3,.cls-8,.cls-9{stroke-width:5px;}.cls-2{fill:#7a624b;}.cls-3,.cls-4,.cls-9{fill:#fff;}.cls-7{fill:#603813;stroke-width:4px;}.cls-9{opacity:0.24;}</style></defs><title>msc-logo-bkgt</title><g id="Face"><path class="cls-1" d="M253.44,724.47c-48,3-94-17-117-73S113.58,463.49,270,421L512.46,380.5h0L754.94,421C911.38,463.49,911.5,595.5,888.5,651.5s-69,76-117,73c-33,58-117,129-258,129S286.46,782.5,253.44,724.47Z"/><path class="cls-2" d="M512,434.5A804.12,804.12,0,0,0,283.72,468c-12.31-26.35-35.32-109.74-5.63-177.28C283.89,277.53,234,243.5,240,205.5c32-13,57-2,96.13,16.64,43.13-31.92,98.37-50.64,176.37-50.64s132.74,18.72,175.87,50.64C727.5,203.5,752.5,192.5,784.5,205.5c6,38-43.89,72-38.09,85.22,29.69,67.54,6.69,150.93-5.63,177.28A804.12,804.12,0,0,0,512.5,434.5Z"/></g><g id="Eyes"><path class="cls-3" d="M591.11,438.48c19.49,2,35.22,35.1,52.39,38,19.46,3.31,40-23.5,55.94-19.67,0,0,18.06-145.33-52.94-159.33C584.13,285.2,591.11,438.48,591.11,438.48Z"/><path d="M607.15,441.43c13.81,1.39,25,24.88,37.13,27,13.79,2.35,28.34-16.66,39.65-13.94,0,0,12.8-103-37.52-112.94C602.2,332.78,607.15,441.43,607.15,441.43Z"/><path class="cls-4" d="M655.69,450.58c4.07.41,7.35,7.33,10.94,7.94,4.06.69,8.35-4.91,11.68-4.11,0,0,3.77-30.34-11.05-33.27C654.23,418.58,655.69,450.58,655.69,450.58Z"/><path class="cls-3" d="M435.26,438.48c-19.49,2-35.22,35.1-52.39,38-19.46,3.31-40-23.5-55.94-19.67,0,0-18.06-145.33,52.94-159.33C442.24,285.2,435.26,438.48,435.26,438.48Z"/><path d="M419.22,441.43c-13.81,1.39-25,24.88-37.13,27-13.79,2.35-28.34-16.66-39.65-13.94,0,0-12.8-103,37.52-112.94C424.17,332.78,419.22,441.43,419.22,441.43Z"/><path class="cls-4" d="M390.69,445.58c4.07.41,7.35,7.33,10.94,7.94,4.06.69,8.35-4.91,11.68-4.11,0,0,3.77-30.34-11.05-33.27C389.23,413.58,390.69,445.58,390.69,445.58Z"/></g><g id="Mouth"><path d="M330.5,611.5a82.69,82.69,0,0,0,11.25,3.72,111.61,111.61,0,0,0,11.55,2.45,135,135,0,0,0,23.42,1.8c2,0,3.93,0,5.81-.16.95,0,1.91-.17,2.86-.26s1.91-.22,2.87-.37c3.83-.55,7.67-1.33,11.48-2.21q11.44-2.65,22.75-6.1c15-4.64,30-9.71,44.66-15.44,7.33-2.87,14.65-5.75,21.81-8.93,3.58-1.58,7.12-3.23,10.57-5,1.72-.87,3.41-1.77,5-2.71.79-.48,1.62-.94,2.33-1.44.35-.24.78-.49,1.07-.73l.94-.72,2.57-2,2.59,2,.94.72c.3.24.72.49,1.07.73.71.5,1.54,1,2.33,1.44,1.62.94,3.31,1.84,5,2.71,3.45,1.74,7,3.38,10.57,5,7.16,3.17,14.48,6.06,21.81,8.92,14.67,5.73,29.62,10.79,44.65,15.44q11.29,3.45,22.75,6.1c3.81.88,7.65,1.66,11.48,2.21,1,.15,1.92.28,2.87.37s1.92.23,2.86.26c1.88.16,3.85.12,5.81.16a134.86,134.86,0,0,0,23.42-1.8,111.36,111.36,0,0,0,11.55-2.45,82.69,82.69,0,0,0,11.25-3.72,75.44,75.44,0,0,1-10.89,4.87,110.75,110.75,0,0,1-11.47,3.46,130.11,130.11,0,0,1-23.76,3.55c-2,.1-4,.23-6.08.18-1,0-2-.07-3.07-.11s-2-.12-3-.23c-4-.35-8-.94-12-1.63-7.91-1.37-15.69-3.23-23.41-5.23q-5.79-1.51-11.54-3.16c-3.83-1.11-7.64-2.3-11.44-3.5q-11.39-3.63-22.65-7.69t-22.28-8.85c-3.68-1.59-7.34-3.26-11-5.06-1.82-.9-3.64-1.85-5.46-2.88-.91-.53-1.82-1-2.74-1.66-.46-.31-.91-.56-1.39-.93l-1.42-1.09h5.16l-1.42,1.08c-.48.37-.92.62-1.39.93-.92.62-1.83,1.12-2.74,1.66-1.82,1-3.63,2-5.46,2.88-3.64,1.8-7.3,3.47-11,5.06Q481,597.91,469.81,602t-22.65,7.69q-11.39,3.65-23,6.66c-7.73,2-15.5,3.87-23.41,5.23-4,.68-7.93,1.28-12,1.63-1,.1-2,.19-3,.23s-2,.13-3.06.11c-2.08,0-4.07-.07-6.08-.18a130,130,0,0,1-23.76-3.55,110.56,110.56,0,0,1-11.47-3.46A75.45,75.45,0,0,1,330.5,611.5Z"/><path class="cls-5" d="M380.63,621.5h-.13c31,0,118-32,131-43,13,11,100,43,131,43,5,49-51,129-131,129S375.63,670.5,380.63,621.5Z"/><path class="cls-3" d="M476,664.5c-2.5-2-20-88-20-88l55.5-17,56,17s-18,86-20,88S478.5,666.5,476,664.5Z"/><path class="cls-6" d="M238.5,483.5s115-49,273-49,273,49,273,49"/><path d="M238.5,483.5c21.29-9.39,43.45-16.71,65.8-23.23,5.6-1.59,11.2-3.22,16.85-4.62l8.46-2.17,4.23-1.09c1.41-.35,2.84-.66,4.26-1l17.05-3.86,17.16-3.37A774.36,774.36,0,0,1,511.5,431a773.76,773.76,0,0,1,139.18,13.16l17.16,3.37,17.05,3.86c1.42.33,2.84.64,4.26,1l4.23,1.09,8.46,2.17c5.66,1.39,11.25,3,16.85,4.62,22.35,6.53,44.51,13.85,65.8,23.24a657.3,657.3,0,0,0-66.69-19.92c-5.63-1.37-11.24-2.84-16.91-4l-8.49-1.88-4.24-.94c-1.42-.3-2.84-.56-4.26-.85l-17-3.38-17.12-2.95c-22.88-3.59-45.82-6.82-68.91-8.51l-8.65-.74c-1.44-.12-2.88-.27-4.32-.36l-4.33-.23-17.33-.92c-5.77-.4-11.56-.37-17.34-.5L511.5,438l-17.35.29c-5.78.12-11.57.09-17.34.5l-17.33.92-4.33.23c-1.44.09-2.88.24-4.32.36l-8.65.73c-23.09,1.69-46,4.92-68.91,8.51l-17.12,2.95-17,3.38c-1.42.28-2.85.54-4.26.85l-4.24.94-8.49,1.89c-5.67,1.19-11.28,2.66-16.92,4A656.68,656.68,0,0,0,238.5,483.5Z"/><path class="cls-7" d="M511.06,499.5c-8,0-44-8-47-14,0,0-22-48-7.77-49.06,2.45-.18,4.92-.33,7.39-.49,15.28-.93,31.1-1.45,47.38-1.45h.44c16.27,0,32.09.52,47.38,1.45,2.48.15,4.95.3,7.39.49,14.23,1.06-7.77,49.06-7.77,49.06-3,6-39,14-47,14Z"/><path d="M511.85,593c.56,6.67.93,13.33,1.4,20l.58,10,.47,10c.15,3.33.43,6.67.67,10a77.07,77.07,0,0,1,0,10c-.2,3.33-.54,6.67-1,10a71.57,71.57,0,0,1-2.12,10h-.7A71.57,71.57,0,0,1,509,663c-.49-3.33-.82-6.67-1-10a77.07,77.07,0,0,1,0-10c.24-3.33.52-6.67.67-10l.47-10,.58-10c.47-6.67.84-13.33,1.4-20Z"/><path d="M511.8,559a66.08,66.08,0,0,1-1.21-7.5c-.29-2.5-.45-5-.59-7.5-.29-5,.23-10,.4-15s.37-10,.6-15,.48-10,.8-15h.4c.32,5,.53,10,.8,15s.43,10,.6,15,.69,10,.4,15c-.14,2.5-.3,5-.59,7.5a66.08,66.08,0,0,1-1.21,7.5Z"/></g><g id="MGlass"><path class="cls-8" d="M379.88,255.82c-73.13,0-132.75,60.28-132.08,133.4a131.74,131.74,0,0,0,37.88,91.39L81.07,685.23a15.65,15.65,0,0,0,0,22.14h0a13.67,13.67,0,0,0,19.33,0L308.53,499.23a131.58,131.58,0,0,0,72.35,20.95c72.3-.49,131.22-59.79,131.26-132.09A132.18,132.18,0,0,0,379.88,255.82Zm.09,235A102.86,102.86,0,1,1,482.83,388,102.86,102.86,0,0,1,380,490.86Z"/><circle class="cls-9" cx="380" cy="387" r="115.5"/></g></svg>